<svg width="50" height="50" viewBox="0 0 50 50" fill="none" xmlns="http://www.w3.org/2000/svg">
<path d="M48.9258 25C48.9277 27.2046 48.625 29.3988 48.0264 31.5205L47.3398 31.5898C47.2842 31.5947 47.2275 31.5996 47.1729 31.6016L46.5928 31.6279C45.8387 31.6595 45.1087 31.9026 44.4863 32.3295C43.8639 32.7564 43.3742 33.3499 43.0732 34.042L42.9248 34.3799C42.6772 34.944 42.2707 35.4238 41.755 35.7607C41.2392 36.0977 40.6366 36.2772 40.0205 36.2773H37.5527C37.2682 36.2782 36.9936 36.1729 36.7827 35.9819C36.5717 35.791 36.4396 35.5283 36.4121 35.2451L36.3135 34.2588C36.2551 33.6565 36.0607 33.0753 35.7451 32.559C35.4294 32.0427 35.0007 31.6048 34.4912 31.2783C34.2923 31.1504 34.1287 30.9746 34.0155 30.7669C33.9024 30.5592 33.8433 30.3264 33.8438 30.0898V29.1016C33.8439 28.8273 33.9023 28.5562 34.0151 28.3062C34.1279 28.0561 34.2925 27.833 34.4981 27.6514L38.7129 23.9287C39.3066 23.4023 39.7371 22.7169 39.9536 21.9536C40.1701 21.1902 40.1635 20.3808 39.9346 19.6211C39.6967 18.8372 39.2364 18.1391 38.6096 17.6117C37.9828 17.0842 37.2164 16.7499 36.4033 16.6494L35.9775 16.5967C35.4698 16.5345 35.0029 16.2873 34.666 15.9023C34.5055 15.7198 34.4055 15.492 34.3798 15.2503C34.3541 15.0087 34.404 14.7649 34.5225 14.5527L35.4053 13.043C36.4967 11.18 37.7832 9.43839 39.2432 7.84766L40.1953 6.51953C42.9279 8.76153 45.1285 11.5823 46.6383 14.7782C48.1481 17.9741 48.9294 21.4654 48.9258 25Z" fill="#D8FF33"/>
<path d="M47.3398 31.5899L48.0264 31.5205C45.1875 41.5655 35.9531 48.9258 25 48.9258C11.7861 48.9258 1.07422 38.2139 1.07422 25C1.07422 24.2471 1.1084 23.503 1.17676 22.7676L1.46582 22.7949L1.79199 22.7305C2.56498 22.5793 3.36589 22.673 4.08308 22.9986C4.80027 23.3242 5.39801 23.8654 5.79297 24.5469C5.97936 24.8663 6.21092 25.157 6.48047 25.4102L8.18164 27.0117C8.48574 27.2975 8.85524 27.5044 9.25781 27.6143L9.45605 27.669C10.0319 27.8272 10.557 28.1318 10.9802 28.5531C11.4034 28.9744 11.7103 29.4981 11.8711 30.0733L12.7822 33.3633C12.8924 33.7584 13.0766 34.1289 13.3252 34.4551L16.0879 38.0772C16.4327 38.5295 16.662 39.0592 16.7559 39.6201L17.5068 44.126C17.5307 44.2876 17.6135 44.4348 17.7393 44.5391C17.8291 44.6113 17.9368 44.6579 18.051 44.6739C18.1651 44.6898 18.2815 44.6747 18.3877 44.6299C18.6009 44.5408 18.7858 44.3953 18.9224 44.2089C19.059 44.0225 19.1423 43.8024 19.1631 43.5723C19.2541 42.6512 19.6226 41.7794 20.2197 41.0723L21.0205 40.1104C21.1621 39.94 21.2683 39.7431 21.333 39.5313L22.1562 36.8633C22.399 36.0749 22.8809 35.3814 23.5352 34.8789L25.9824 33C26.1602 32.8675 26.281 32.6724 26.3203 32.4541C26.3402 32.3346 26.3336 32.2121 26.3011 32.0953C26.2685 31.9786 26.2107 31.8704 26.1318 31.7783L24.5029 29.8614C24.4053 29.7471 24.3125 29.628 24.2256 29.5059L22.9795 27.7705C22.291 26.8096 21.1895 26.1729 20.0068 26.2041C19.8881 26.2069 19.7709 26.1761 19.6689 26.1153L17.124 24.5879C16.7579 24.3695 16.3417 24.2492 15.9155 24.2388C15.4894 24.2284 15.0677 24.3281 14.6914 24.5283L13.3506 25.2471C12.7636 25.5616 12.0793 25.6422 11.4353 25.4728C10.7913 25.3034 10.2352 24.8966 9.87891 24.334L8.57617 22.2774C8.28127 21.8113 8.12872 21.2694 8.13722 20.718C8.14572 20.1666 8.3149 19.6296 8.62402 19.1729C8.95509 18.6813 9.4165 18.2917 9.95655 18.0476C10.4966 17.8036 11.0939 17.7147 11.6816 17.791L13.6357 18.0391C13.9768 18.086 14.3241 18.0317 14.6345 17.8829C14.9449 17.7341 15.2048 17.4974 15.3818 17.2022C15.6869 16.6773 16.14 16.2541 16.6843 15.9854C17.2287 15.7167 17.8402 15.6144 18.4424 15.6914L19.2969 15.8008C19.5966 15.8383 19.901 15.7971 20.1799 15.6812C20.4589 15.5652 20.7028 15.3786 20.8877 15.1397L21.6406 14.1631C21.9726 13.7347 22.159 13.2115 22.1727 12.6697C22.1864 12.128 22.0267 11.596 21.7168 11.1514L20.0928 8.81057C19.4703 7.91218 18.6591 7.16061 17.7158 6.60842C17.468 6.46379 17.2286 6.305 16.999 6.13284L15.6309 5.10549L13.8984 3.80081C18.0644 1.62182 22.7797 0.71768 27.4562 1.20117C32.1327 1.68465 36.5633 3.53436 40.1953 6.51956L39.2432 7.84768C37.7832 9.43842 36.4967 11.18 35.4053 13.043L34.5225 14.5528C34.4039 14.765 34.3541 15.0087 34.3798 15.2504C34.4055 15.4921 34.5055 15.7198 34.666 15.9024C35.0028 16.2873 35.4698 16.5345 35.9775 16.5967L36.4033 16.6494C37.2164 16.7499 37.9828 17.0842 38.6096 17.6117C39.2364 18.1392 39.6967 18.8372 39.9346 19.6211C40.1635 20.3808 40.1701 21.1902 39.9536 21.9536C39.7371 22.7169 39.3066 23.4023 38.7129 23.9287L34.498 27.6514C34.2925 27.833 34.1279 28.0562 34.0151 28.3062C33.9023 28.5562 33.8439 28.8273 33.8438 29.1016V30.0899C33.8433 30.3264 33.9024 30.5592 34.0155 30.7669C34.1287 30.9746 34.2922 31.1505 34.4912 31.2783C35.0007 31.6049 35.4294 32.0428 35.7451 32.559C36.0607 33.0753 36.2551 33.6565 36.3135 34.2588L36.4121 35.2451C36.4396 35.5283 36.5717 35.7911 36.7827 35.982C36.9936 36.1729 37.2682 36.2782 37.5527 36.2774H40.0205C40.6366 36.2772 41.2392 36.0977 41.755 35.7608C42.2707 35.4238 42.6772 34.944 42.9248 34.3799L43.0732 34.042C43.3742 33.3499 43.8639 32.7564 44.4863 32.3295C45.1087 31.9026 45.8387 31.6595 46.5928 31.628L47.1729 31.6016C47.2275 31.5996 47.2842 31.5948 47.3398 31.5899Z" fill="#55D8D8"/>
<path d="M26.1318 31.7783C26.2107 31.8703 26.2685 31.9785 26.3011 32.0953C26.3336 32.212 26.3402 32.3345 26.3203 32.4541C26.281 32.6723 26.1602 32.8675 25.9824 33L23.5352 34.8789C22.8809 35.3814 22.399 36.0748 22.1562 36.8633L21.333 39.5312C21.2683 39.7431 21.1621 39.94 21.0205 40.1104L20.2197 41.0723C19.6226 41.7794 19.2541 42.6512 19.1631 43.5723C19.1423 43.8024 19.059 44.0225 18.9224 44.2089C18.7858 44.3952 18.6009 44.5408 18.3877 44.6299C18.2815 44.6746 18.1651 44.6898 18.051 44.6738C17.9368 44.6578 17.8291 44.6113 17.7393 44.5391C17.6135 44.4347 17.5307 44.2876 17.5068 44.126L16.7559 39.6201C16.662 39.0591 16.4327 38.5295 16.0879 38.0771L13.3252 34.4551C13.0766 34.1289 12.8924 33.7583 12.7822 33.3633L11.8711 30.0732C11.7103 29.4981 11.4034 28.9744 10.9802 28.5531C10.557 28.1317 10.0319 27.8271 9.45605 27.6689L9.25781 27.6143C8.85524 27.5044 8.48574 27.2975 8.18164 27.0117L6.48047 25.4102C6.21092 25.157 5.97936 24.8662 5.79297 24.5469C5.39801 23.8654 4.80027 23.3242 4.08308 22.9986C3.36589 22.673 2.56498 22.5792 1.79199 22.7305L1.46582 22.7949L1.17676 22.7676C1.54899 18.7965 2.90772 14.9814 5.12946 11.669C7.35121 8.35656 10.3655 5.65189 13.8984 3.80078L15.6309 5.10547L16.999 6.13281C17.2286 6.30498 17.468 6.46377 17.7158 6.6084C18.6591 7.16059 19.4703 7.91215 20.0928 8.81055L21.7168 11.1514C22.0267 11.596 22.1864 12.1279 22.1727 12.6697C22.159 13.2115 21.9726 13.7347 21.6406 14.1631L20.8877 15.1396C20.7028 15.3786 20.4589 15.5652 20.1799 15.6811C19.901 15.7971 19.5966 15.8383 19.2969 15.8008L18.4424 15.6914C17.8402 15.6144 17.2287 15.7166 16.6843 15.9854C16.14 16.2541 15.6869 16.6773 15.3818 17.2021C15.2048 17.4974 14.9449 17.7341 14.6345 17.8829C14.3241 18.0317 13.9768 18.086 13.6357 18.0391L11.6816 17.791C11.0939 17.7147 10.4966 17.8035 9.95655 18.0476C9.4165 18.2917 8.95509 18.6813 8.62402 19.1729C8.3149 19.6296 8.14572 20.1665 8.13722 20.718C8.12872 21.2694 8.28127 21.8113 8.57617 22.2773L9.87891 24.334C10.2352 24.8965 10.7913 25.3034 11.4353 25.4728C12.0793 25.6422 12.7636 25.5615 13.3506 25.2471L14.6914 24.5283C15.0677 24.3281 15.4894 24.2283 15.9155 24.2388C16.3417 24.2492 16.7579 24.3695 17.124 24.5879L19.6689 26.1152C19.7709 26.1761 19.8881 26.2069 20.0068 26.2041C21.1895 26.1728 22.291 26.8096 22.9795 27.7705L24.2256 29.5059C24.3125 29.6279 24.4053 29.7471 24.5029 29.8613L26.1318 31.7783Z" fill="#D8FF33"/>
<path d="M25 1.07425C21.133 1.06844 17.3228 2.00425 13.8984 3.80081L15.6309 5.1055L16.999 6.13284C17.2229 6.30047 17.4561 6.4554 17.6974 6.5969L17.8048 6.53518C21.2527 4.73261 25.0878 3.79683 28.9785 3.80874C32.8692 3.82065 36.6984 4.77989 40.1353 6.60354L40.1954 6.51956C35.9186 2.99099 30.5446 1.06521 25 1.07425Z" fill="#6BF2EE"/>
<path d="M4.98047 27.7344C4.98047 26.9815 5.01465 26.2373 5.08301 25.502L5.3082 23.8899C4.87104 23.4109 4.31786 23.0526 3.70199 22.8495C3.08611 22.6465 2.42831 22.6055 1.79199 22.7305L1.46582 22.795L1.17676 22.7676C1.10938 23.503 1.0752 24.2471 1.07422 25C1.07278 29.2543 2.20613 33.432 4.3574 37.1023C6.50867 40.7725 9.59999 43.8026 13.3126 45.8799C10.6961 43.6362 8.59646 40.8525 7.15814 37.7202C5.71982 34.5879 4.9769 31.1812 4.98047 27.7344Z" fill="#6BF2EE"/>
<path d="M5.29111 23.8712C5.88813 20.2308 7.31806 16.7775 9.46937 13.7807C11.6207 10.7839 14.4352 8.32454 17.6935 6.59453C17.4536 6.45362 17.2218 6.29948 16.999 6.13281L15.6309 5.10547L13.8984 3.80078C10.3655 5.65189 7.35121 8.35656 5.12946 11.669C2.90772 14.9814 1.54899 18.7965 1.17676 22.7676L1.46582 22.7949L1.79199 22.7305C2.42411 22.6063 3.0775 22.6459 3.68998 22.8455C4.30246 23.0452 4.85366 23.3983 5.29111 23.8712Z" fill="#F5FF92"/>
<path d="M25 0.488372C20.1521 0.488365 15.413 1.92595 11.382 4.61933C7.35111 7.31271 4.20938 11.1409 2.35414 15.6199C0.498901 20.0988 0.013487 25.0273 0.95928 29.7821C1.90507 34.5369 4.23959 38.9045 7.66763 42.3325C12.2645 46.9294 18.4991 49.5118 25 49.5118C31.501 49.5118 37.7356 46.9294 42.3325 42.3325C46.9293 37.7357 49.5118 31.501 49.5118 25.0001C49.5118 18.4992 46.9293 12.2645 42.3325 7.66767C40.0616 5.38441 37.3605 3.57423 34.3854 2.3419C31.4103 1.10957 28.2203 0.479573 25 0.488372ZM8.49614 8.49618C10.0772 6.91256 11.877 5.56357 13.8407 4.49033L16.6474 6.60097C16.8949 6.78668 17.1527 6.95812 17.4197 7.11445C18.2885 7.62458 19.0364 8.31709 19.6118 9.14423L21.235 11.4851C21.4738 11.8276 21.5969 12.2375 21.5864 12.6549C21.5759 13.0724 21.4322 13.4755 21.1764 13.8056L20.4236 14.7821C20.3012 14.9402 20.1397 15.0636 19.9551 15.1403C19.7705 15.217 19.5691 15.2442 19.3708 15.2194L18.5165 15.1102C17.7999 15.018 17.0722 15.1394 16.4244 15.4592C15.7766 15.779 15.2377 16.2829 14.8751 16.9078C14.7565 17.1039 14.5827 17.2607 14.3755 17.3585C14.1682 17.4563 13.9367 17.4908 13.7099 17.4577L11.756 17.2096C11.0608 17.1189 10.354 17.2239 9.71516 17.5127C9.07627 17.8014 8.53053 18.2626 8.13921 18.8443C7.76586 19.3954 7.56152 20.0434 7.55127 20.7089C7.54101 21.3744 7.7253 22.0285 8.08149 22.5907L9.38423 24.6477C9.82166 25.333 10.5012 25.8284 11.2874 26.0352C12.0736 26.242 12.9089 26.145 13.6269 25.7637L14.968 25.0451C15.2549 24.8925 15.5763 24.8164 15.9011 24.8243C16.226 24.8322 16.5433 24.9238 16.8224 25.0901L19.3678 26.6175C19.5651 26.736 19.7921 26.7958 20.0221 26.7896C20.965 26.7634 21.8921 27.2592 22.5038 28.1118L23.749 29.8477C23.8458 29.9824 23.9492 30.1146 24.0563 30.2408L25.6855 32.1574C25.7094 32.1851 25.7269 32.2178 25.7367 32.2531C25.7464 32.2884 25.7481 32.3254 25.7418 32.3614C25.7259 32.4319 25.6843 32.494 25.625 32.5354L23.178 34.4145C22.4263 34.9896 21.8732 35.7851 21.5959 36.6899L20.7735 39.3585C20.7312 39.4963 20.6619 39.6243 20.5696 39.7351L19.7688 40.6978C19.0946 41.4953 18.6795 42.4794 18.5788 43.5188C18.5676 43.643 18.5228 43.7617 18.4492 43.8623C18.3755 43.9628 18.2758 44.0413 18.1608 44.0894C18.1514 44.0935 18.1409 44.0948 18.1308 44.0931C18.1206 44.0913 18.1112 44.0866 18.1037 44.0796C18.0929 44.0649 18.0862 44.0476 18.0841 44.0295L17.334 39.5241C17.2242 38.8691 16.9566 38.2506 16.5543 37.7222L13.7914 34.0991C13.5876 33.8326 13.437 33.5295 13.3478 33.2061L12.4359 29.9161C12.2476 29.2435 11.8885 28.6311 11.3936 28.1383C10.8986 27.6455 10.2847 27.2891 9.61128 27.1036L9.41265 27.0493C9.10254 26.9645 8.81789 26.8051 8.58355 26.5851L6.88228 24.984C6.65386 24.7691 6.45758 24.5224 6.29946 24.2516C5.85574 23.489 5.19201 22.8782 4.39525 22.4992C3.59848 22.1203 2.70582 21.9908 1.83423 22.1278C2.46158 16.9649 4.80816 12.1633 8.49614 8.49618ZM41.504 41.504C38.2398 44.7682 34.081 46.9911 29.5535 47.8917C25.026 48.7923 20.3331 48.3301 16.0682 46.5636C11.8034 44.797 8.1582 41.8054 5.59359 37.9672C3.02898 34.1289 1.66015 29.6163 1.66021 25.0001C1.66021 24.444 1.67974 23.8913 1.7188 23.3419L1.90513 23.3051C2.55875 23.1783 3.23563 23.2581 3.84178 23.5336C4.44793 23.8091 4.95324 24.2665 5.28755 24.8423C5.5023 25.2102 5.7689 25.5454 6.07915 25.8374L7.78013 27.4383C8.15428 27.7897 8.60873 28.0443 9.10386 28.1799L9.30249 28.2341C9.78021 28.3656 10.2158 28.6185 10.5669 28.9681C10.918 29.3177 11.1727 29.7522 11.3063 30.2294L12.2182 33.5194C12.3472 33.9868 12.5649 34.4249 12.8592 34.8102L15.6223 38.4332C15.9089 38.8097 16.0995 39.2503 16.1778 39.7169L16.9288 44.2226C16.9722 44.5131 17.1187 44.7783 17.3414 44.9697C17.5642 45.1612 17.8483 45.2662 18.142 45.2655C18.3043 45.2655 18.465 45.2332 18.6146 45.1704C18.9259 45.0403 19.1959 44.8276 19.3953 44.5554C19.5947 44.2832 19.716 43.9617 19.7461 43.6256C19.8257 42.8226 20.148 42.063 20.6702 41.4478L21.4709 40.4851C21.6621 40.2554 21.8058 39.9901 21.8935 39.7045L22.7161 37.0359C22.9221 36.3633 23.3332 35.772 23.8918 35.3445L26.3389 33.4655C26.6366 33.2425 26.8371 32.9137 26.8992 32.547C26.9319 32.3438 26.9202 32.136 26.8649 31.9379C26.8095 31.7397 26.7119 31.5559 26.5787 31.3991L24.9493 29.4825C24.8627 29.3808 24.7793 29.274 24.7013 29.1652L23.456 27.4294C22.6177 26.2608 21.3226 25.5837 19.9917 25.6188C19.9843 25.619 19.9771 25.617 19.9708 25.6133L17.4252 24.0859C16.9721 23.8158 16.4569 23.6671 15.9295 23.6543C15.402 23.6415 14.8802 23.765 14.4145 24.0129L13.0735 24.7313C12.6167 24.974 12.0853 25.0356 11.585 24.9041C11.0848 24.7725 10.6525 24.4574 10.3742 24.0214L9.07144 21.9643C8.83735 21.5948 8.71625 21.165 8.72301 20.7276C8.72978 20.2902 8.86411 19.8643 9.10952 19.5022C9.3798 19.1003 9.7568 18.7817 10.1982 18.5822C10.6395 18.3826 11.1278 18.3101 11.6081 18.3727L13.5623 18.6209C14.0174 18.6832 14.4809 18.6099 14.8946 18.4102C15.3083 18.2104 15.6539 17.8931 15.8881 17.4978C16.1351 17.0722 16.5022 16.7289 16.9435 16.5111C17.3848 16.2933 17.8805 16.2106 18.3686 16.2734L19.2229 16.3827C19.624 16.4328 20.0312 16.3776 20.4045 16.2225C20.7778 16.0674 21.1043 15.8179 21.3518 15.4983L22.1046 14.5218C22.5129 13.995 22.7421 13.3515 22.759 12.6853C22.7758 12.019 22.5793 11.3649 22.1981 10.8182L20.5748 8.47665C19.902 7.50965 19.0275 6.70003 18.0116 6.10361C17.7832 5.96982 17.5627 5.8231 17.3511 5.66415L15.0016 3.89706C18.9218 2.0475 23.2787 1.32334 27.5864 1.80535C31.8941 2.28736 35.9833 3.95658 39.3977 6.62685L38.7879 7.47763C37.309 9.09161 36.0056 10.8582 34.9 12.7476L34.014 14.2622C33.8344 14.5799 33.7581 14.9456 33.7959 15.3086C33.8336 15.6716 33.9835 16.0139 34.2247 16.2878C34.6563 16.7816 35.255 17.0988 35.906 17.1787L36.3315 17.231C37.032 17.3176 37.6924 17.6056 38.2325 18.06C38.7726 18.5145 39.1693 19.1159 39.3744 19.7913C39.5709 20.4437 39.5764 21.1386 39.3904 21.7941C39.2043 22.4495 38.8345 23.0379 38.3246 23.4897L34.1309 27.2128C33.8662 27.4505 33.6553 27.742 33.5121 28.0677C33.369 28.3934 33.2969 28.7459 33.3008 29.1017V30.0898C33.296 30.4227 33.3755 30.7514 33.5319 31.0453C33.6882 31.3392 33.9165 31.5887 34.1953 31.7706C34.629 32.0503 34.9935 32.4248 35.2613 32.8659C35.5292 33.307 35.6933 33.8032 35.7414 34.317L35.8346 35.2798C35.8759 35.7048 36.0755 36.0988 36.3937 36.3834C36.712 36.6681 37.1257 36.8227 37.5527 36.8165H40.0201C40.748 36.8212 41.4614 36.6132 42.0727 36.2181C42.6841 35.823 43.1667 35.258 43.4615 34.5924L43.6097 34.2664C43.8672 33.6751 44.2862 33.1683 44.8185 32.8042C45.3508 32.4401 45.975 32.2333 46.6194 32.2076L47.1999 32.1843L47.2178 32.1831C46.0817 35.7003 44.1228 38.8957 41.504 41.504ZM47.57 30.9776L47.2819 31.0069C47.2364 31.0115 47.1907 31.0147 47.1461 31.0167L46.5664 31.043C45.7029 31.0789 44.867 31.3572 44.1544 31.846C43.4417 32.3349 42.8811 33.0145 42.5368 33.8071L42.3885 34.1215C42.1853 34.5787 41.8528 34.9664 41.4319 35.237C41.0111 35.5077 40.5204 35.6493 40.0201 35.6446H37.5527C37.4161 35.6502 37.2825 35.6035 37.179 35.5142C37.0755 35.4248 37.0098 35.2994 36.9954 35.1635L36.8967 34.1889C36.8336 33.5012 36.6147 32.8369 36.2567 32.2463C35.8988 31.6557 35.4111 31.1543 34.8306 30.7802C34.7169 30.7054 34.6243 30.6026 34.5616 30.4818C34.499 30.361 34.4683 30.2261 34.4727 30.09V29.1017C34.4688 28.9119 34.5055 28.7235 34.5805 28.5492C34.6554 28.3748 34.7668 28.2185 34.9072 28.0908L39.1114 24.368C39.7886 23.7669 40.2794 22.9844 40.5257 22.113C40.7721 21.2417 40.7636 20.318 40.5014 19.4514C40.2299 18.5587 39.7052 17.7639 38.9911 17.1634C38.277 16.5629 37.404 16.1823 36.478 16.068L36.0512 16.0156C35.686 15.9709 35.3501 15.793 35.1079 15.5161C35.0284 15.426 34.9784 15.3138 34.9645 15.1945C34.9505 15.0752 34.9733 14.9545 35.0297 14.8485L35.9124 13.3393C36.9818 11.5117 38.2435 9.80365 39.6758 8.24413C39.6919 8.22668 39.7069 8.20825 39.7207 8.18896L40.3031 7.37626C40.7138 7.73427 41.114 8.10758 41.504 8.49618C43.678 10.6585 45.4016 13.2305 46.575 16.0634C47.7484 18.8963 48.3483 21.9338 48.3399 25.0001C48.3412 27.0174 48.0824 29.0264 47.5699 30.9775L47.57 30.9776Z" fill="#284268"/>
</svg>
