<svg width="50" height="50" viewBox="0 0 50 50" fill="none" xmlns="http://www.w3.org/2000/svg">
<path d="M41.1772 31.0212L40.0718 29.9157L43.7882 26.1993C45.7788 24.2094 46.8749 21.5641 46.8749 18.7501V16.8212H48.4374V18.7501C48.4374 21.9821 47.1788 25.0196 44.8944 27.3048L41.1772 31.0212Z" fill="#A8B0BC"/>
<path d="M10.9375 6.25H7.8125C6.94922 6.25 6.25 6.94922 6.25 7.8125V45.3125H1.5625V6.25C1.5625 3.66094 3.66094 1.5625 6.25 1.5625C8.83906 1.5625 10.9375 3.66094 10.9375 6.25Z" fill="#D5CEC2"/>
<path d="M6.25 10.9375V7.8125C6.25 6.94922 6.94922 6.25 7.8125 6.25H10.9375C10.9375 8.83906 8.83906 10.9375 6.25 10.9375Z" fill="#758190"/>
<path d="M37.5 10.9375C40.0891 10.9375 42.1875 8.83906 42.1875 6.25C42.1875 3.66094 40.0891 1.5625 37.5 1.5625H6.25C8.83906 1.5625 10.9375 3.66094 10.9375 6.25C10.9375 8.83906 8.83906 10.9375 6.25 10.9375H37.5Z" fill="#A8B0BC"/>
<path d="M37.5 28.9062V48.4375H6.25V10.9375H37.5V21.0938" fill="#E7E4DD"/>
<path d="M30.4629 28.1255L41.3987 17.1896L45.3044 21.0953L34.3685 32.0311L30.4629 28.1255Z" fill="#C7E2FC"/>
<path d="M41.4062 17.1875L43.7219 14.8719C44.2398 14.3539 44.9422 14.0625 45.675 14.0625C47.2008 14.0625 48.4375 15.2992 48.4375 16.825C48.4375 17.5578 48.1469 18.2602 47.6281 18.7781L45.3125 21.0938" fill="#758190"/>
<path d="M30.4688 28.125L24.2188 34.375L28.125 38.2812L34.375 32.0312" fill="#A8B0BC"/>
<path d="M24.2188 34.375L21.875 39.0625L23.4375 40.625L28.125 38.2812" fill="#758190"/>
<path d="M19.7529 41.6324L22.0969 39.2885L23.2017 40.3934L20.8578 42.7373L19.7529 41.6324Z" fill="#CBC3B6"/>
<path d="M31.8633 29.5255L42.7991 18.5897L43.9038 19.6944L32.968 30.6302L31.8633 29.5255Z" fill="#243242"/>
<path d="M10.1562 14.8438H33.5938V16.4062H10.1562V14.8438Z" fill="#A8B0BC"/>
<path d="M10.1562 17.9688H33.5938V19.5312H10.1562V17.9688Z" fill="#A8B0BC"/>
<path d="M10.1562 21.0938H33.5938V22.6562H10.1562V21.0938Z" fill="#A8B0BC"/>
<path d="M10.1562 24.2188H32.0312V25.7812H10.1562V24.2188Z" fill="#A8B0BC"/>
<path d="M10.1562 27.3438H28.9062V28.9062H10.1562V27.3438Z" fill="#A8B0BC"/>
<path d="M10.1562 39.8438H18.75V41.4062H10.1562V39.8438Z" fill="#A8B0BC"/>
<path d="M10.1562 42.9688H33.5938V44.5312H10.1562V42.9688Z" fill="#A8B0BC"/>
<path d="M43.1297 18.9109C45.2961 18.9062 47.2063 17.8125 48.3445 16.1484C48.0414 14.9516 46.9664 14.0625 45.675 14.0625C44.9422 14.0625 44.2398 14.3531 43.7219 14.8719L41.4062 17.1875L43.1297 18.9109Z" fill="#8892A0"/>
<path d="M24.2188 34.375L21.875 39.0625L22.0781 39.2656C23.8875 38.9391 25.5406 38.1766 26.9328 37.0891L24.2188 34.375Z" fill="#8892A0"/>
<path d="M30.4688 28.125L24.2188 34.375L26.9328 37.0891C29.4086 35.1539 31.0375 32.1984 31.1961 28.8523L30.4688 28.125Z" fill="#C1C8D1"/>
<path d="M49.218 16.8243C49.218 14.8711 47.6289 13.2813 45.675 13.2813C44.7289 13.2813 43.8391 13.65 43.1695 14.3188L40.8531 16.6344L38.2812 19.2063V11.6555C40.9266 11.2743 42.9688 8.99849 42.9688 6.24927C42.9688 3.23364 40.5148 0.780518 37.5 0.780518H6.25781C6.25547 0.780518 6.25313 0.780518 6.25 0.780518C3.23438 0.780518 0.78125 3.23442 0.78125 6.24927V45.3118C0.78125 45.743 1.13125 46.093 1.5625 46.093H5.46875V48.4368C5.46875 48.8688 5.81797 49.218 6.25 49.218H37.5C37.932 49.218 38.2812 48.8688 38.2812 48.4368V29.2297L45.8648 21.6461L46.6672 20.8438C46.2625 22.8594 45.2758 24.7125 43.7891 26.1993L40.0727 29.9157L41.1781 31.0211L44.8945 27.3047C47.1117 25.0875 48.3508 22.1594 48.4234 19.0352C48.9289 18.4079 49.218 17.6415 49.218 16.8243ZM44.2742 15.4235C44.6484 15.0493 45.1461 14.8438 45.675 14.8438C46.7672 14.8438 47.6555 15.7321 47.6555 16.8243C47.6555 17.354 47.45 17.8508 47.0758 18.225L45.3117 19.9883L42.5109 17.1875L44.2742 15.4235ZM41.4055 18.2922L42.2539 19.1407L32.4211 28.9727L31.5727 28.1243L41.4055 18.2922ZM22.825 38.9079L24.432 35.6938L26.8055 38.0672L23.5914 39.6743L22.825 38.9079ZM25.3234 34.3743L30.4688 29.2297L33.2695 32.0305L28.125 37.1758L25.3234 34.3743ZM37.5 2.3438C39.6539 2.3438 41.4062 4.09614 41.4062 6.25005C41.4062 8.40395 39.6539 10.1563 37.5 10.1563H10.0695C11.0852 9.16255 11.7188 7.77974 11.7188 6.25005C11.7188 4.72036 11.0859 3.33755 10.0703 2.3438H37.5ZM7.03125 10.0766V7.81255C7.03125 7.3813 7.38125 7.0313 7.8125 7.0313H10.0773C9.76562 8.55942 8.55937 9.76489 7.03125 10.0766ZM2.34375 44.5313V6.25005C2.34375 4.09614 4.09609 2.3438 6.25 2.3438H6.25391C8.13828 2.34536 9.71484 3.68911 10.0773 5.4688H7.8125C6.52031 5.4688 5.46875 6.52036 5.46875 7.81255V11.7188V44.5313H2.34375ZM36.7188 47.6555H7.03125V11.7188H36.7188V20.7696L33.2687 24.2188H10.1562V25.7813H31.707L30.1445 27.3438H10.1562V28.9063H28.582L23.6656 33.8227C23.6047 33.8836 23.5648 33.9571 23.5281 34.0305L23.5195 34.0266L21.1758 38.7141C21.025 39.0149 21.0844 39.3782 21.3219 39.6157L21.5508 39.8446L19.7594 41.636L20.8648 42.7415L22.6562 40.9501L22.8852 41.179C23.0344 41.3266 23.2344 41.4063 23.4375 41.4063C23.5562 41.4063 23.6758 41.379 23.7867 41.3235L28.4742 38.9797L28.4703 38.9711C28.5438 38.9344 28.6164 38.8946 28.6781 38.8336L34.9281 32.5836L36.7188 30.7922V47.6555ZM34.375 30.9258L33.5266 30.0774L43.3594 20.2454L44.207 21.0938L34.375 30.9258Z" fill="black"/>
<path d="M10.1562 14.8438H33.5938V16.4062H10.1562V14.8438Z" fill="black"/>
<path d="M10.1562 17.9688H33.5938V19.5312H10.1562V17.9688Z" fill="black"/>
<path d="M10.1562 21.0938H33.5938V22.6562H10.1562V21.0938Z" fill="black"/>
<path d="M10.1562 39.8438H18.75V41.4062H10.1562V39.8438Z" fill="black"/>
<path d="M10.1562 42.9688H33.5938V44.5312H10.1562V42.9688Z" fill="black"/>
</svg>
