<svg width="32" height="32" viewBox="0 0 32 32" fill="none" xmlns="http://www.w3.org/2000/svg">
<path d="M16 0C7.17725 0 0 7.17725 0 16C0 24.8228 7.17725 32 16 32C24.8228 32 32 24.8228 32 16C32 7.17725 24.8228 0 16 0Z" fill="#FF4D4F"/>
<path d="M18.31 16.0004L22.6411 11.6694C23.1196 11.1908 23.1196 10.415 22.6411 9.93719L22.0637 9.3598C21.585 8.88111 20.8092 8.88111 20.3314 9.3598L16.0004 13.6907L11.6694 9.35891C11.1908 8.88036 10.415 8.88036 9.93719 9.35891L9.35891 9.93629C8.88036 10.415 8.88036 11.1908 9.35891 11.6686L13.6907 16.0004L9.3598 20.3314C8.88111 20.8101 8.88111 21.5859 9.3598 22.0637L9.93719 22.6411C10.4157 23.1196 11.1916 23.1196 11.6694 22.6411L16.0004 18.31L20.3314 22.6411C20.8101 23.1196 21.5859 23.1196 22.0637 22.6411L22.6411 22.0637C23.1196 21.585 23.1196 20.8092 22.6411 20.3314L18.31 16.0004Z" fill="white"/>
</svg>
