<svg width="50" height="50" viewBox="0 0 50 50" fill="none" xmlns="http://www.w3.org/2000/svg">
<path d="M48.4375 36.7188V38.2812C48.4375 38.7109 48.0859 39.0625 47.6562 39.0625H46.875H43.75H40.625H37.5H34.375V35.9375H45.3125H47.6562C48.0859 35.9375 48.4375 36.2891 48.4375 36.7188Z" fill="#CCD1D9"/>
<path d="M15.625 35.9375V39.0625H12.5H9.375H6.25H3.125H2.34375C1.91406 39.0625 1.5625 38.7109 1.5625 38.2812V36.7188C1.5625 36.2891 1.91406 35.9375 2.34375 35.9375H4.6875H15.625Z" fill="#CCD1D9"/>
<path d="M3.125 39.0625H15.625V48.4375H3.125V39.0625Z" fill="#E6E9ED"/>
<path d="M4.6875 25H15.625V35.9375H4.6875V25Z" fill="#E6E9ED"/>
<path d="M34.375 25H45.3125V35.9375H34.375V25Z" fill="#E6E9ED"/>
<path d="M34.375 39.0625H46.875V48.4375H34.375V39.0625Z" fill="#E6E9ED"/>
<path d="M45.3125 28.125V32.8125H42.9688C42.5391 32.8125 42.1875 32.4609 42.1875 32.0312V28.9062C42.1875 28.4766 42.5391 28.125 42.9688 28.125H45.3125Z" fill="#69D6F4"/>
<path d="M39.0625 28.9062V32.0312C39.0625 32.4609 38.7109 32.8125 38.2812 32.8125H34.375V28.125H38.2812C38.7109 28.125 39.0625 28.4766 39.0625 28.9062Z" fill="#69D6F4"/>
<path d="M7.8125 28.9062V32.0312C7.8125 32.4609 7.46094 32.8125 7.03125 32.8125H4.6875V28.125H7.03125C7.46094 28.125 7.8125 28.4766 7.8125 28.9062Z" fill="#69D6F4"/>
<path d="M15.625 28.125V32.8125H11.7188C11.2891 32.8125 10.9375 32.4609 10.9375 32.0312V28.9062C10.9375 28.4766 11.2891 28.125 11.7188 28.125H15.625Z" fill="#69D6F4"/>
<path d="M48.4375 22.1953V24.2188C48.4375 24.6484 48.0859 25 47.6562 25H45.3125H34.375V21.875H39.0625H43.75H48.3594H48.3672C48.4141 21.9766 48.4375 22.0859 48.4375 22.1953Z" fill="#FFC729"/>
<path d="M15.625 21.875V25H4.6875H2.34375C1.91406 25 1.5625 24.6484 1.5625 24.2188V22.1953C1.5625 22.0859 1.58594 21.9766 1.63281 21.875H1.64062H6.25H10.9375H15.625Z" fill="#FFC729"/>
<path d="M48.2109 21.6484L43.9766 17.4141C43.8359 17.2734 43.6328 17.1875 43.4297 17.1875H34.375V21.875H48.3594C48.3281 21.7891 48.2734 21.7109 48.2109 21.6484Z" fill="#FCD770"/>
<path d="M6.57031 17.1875C6.36719 17.1875 6.16406 17.2734 6.02344 17.4141L1.78906 21.6484C1.72656 21.7109 1.67187 21.7891 1.64062 21.875H15.625V17.1875H6.57031Z" fill="#FCD770"/>
<path d="M34.3203 12.5H15.6797C15.6406 12.5859 15.625 12.6797 15.625 12.7734V48.4375H34.375V12.7734C34.375 12.6797 34.3594 12.5859 34.3203 12.5Z" fill="#ECC19C"/>
<path d="M30.4688 31.25H19.5312C19.1 31.25 18.75 30.9 18.75 30.4688V25.7812C18.75 25.35 19.1 25 19.5312 25H30.4688C30.9 25 31.25 25.35 31.25 25.7812V30.4688C31.25 30.9 30.9 31.25 30.4688 31.25Z" fill="#69D6F4"/>
<path d="M34.3203 12.5H30.4141C29.3359 10.6328 27.3125 9.375 25 9.375C22.6875 9.375 20.6641 10.6328 19.5859 12.5H15.6797C15.7031 12.4219 15.7422 12.3516 15.7891 12.2891L23.7344 2.17969C24.0391 1.78906 24.5078 1.5625 25 1.5625C25.4922 1.5625 25.9609 1.78906 26.2656 2.17969L34.2109 12.2891C34.2578 12.3516 34.2969 12.4219 34.3203 12.5Z" fill="#D3A06C"/>
<path d="M31.25 36.7188V38.2812C31.25 38.7109 30.8984 39.0625 30.4688 39.0625H29.6875H25H20.3125H19.5312C19.1016 39.0625 18.75 38.7109 18.75 38.2812V36.7188C18.75 36.2891 19.1016 35.9375 19.5312 35.9375H30.4688C30.8984 35.9375 31.25 36.2891 31.25 36.7188Z" fill="#AAB2BD"/>
<path d="M31.25 15.625C31.25 19.0781 28.4531 21.875 25 21.875C21.5469 21.875 18.75 19.0781 18.75 15.625C18.75 14.4844 19.0547 13.4141 19.5859 12.5C20.6641 10.6328 22.6875 9.375 25 9.375C27.3125 9.375 29.3359 10.6328 30.4141 12.5C30.9453 13.4141 31.25 14.4844 31.25 15.625Z" fill="#69D6F4"/>
<path d="M20.3125 39.0625H29.6875V48.4375H20.3125V39.0625Z" fill="#E6E9ED"/>
<path d="M26.1016 14.5234C26.3906 14.8047 26.5625 15.1953 26.5625 15.625C26.5625 16.4844 25.8594 17.1875 25 17.1875C24.1406 17.1875 23.4375 16.4844 23.4375 15.625C23.4375 15.1953 23.6094 14.8047 23.8984 14.5234C24.1797 14.2344 24.5703 14.0625 25 14.0625C25.4297 14.0625 25.8203 14.2344 26.1016 14.5234Z" fill="#FF826E"/>
<path d="M22.4274 11.9476L21.3228 13.0523L22.8915 14.6211C22.7446 14.9265 22.6563 15.264 22.6563 15.625C22.6563 16.9172 23.7079 17.9687 25.0001 17.9687C26.2923 17.9687 27.3438 16.9172 27.3438 15.625C27.3438 15.264 27.2556 14.9265 27.1087 14.6211L27.8962 13.8336L26.7915 12.7289L26.004 13.5164C25.6985 13.3695 25.361 13.2812 25.0001 13.2812C24.6392 13.2812 24.3017 13.3695 23.9962 13.5164L22.4274 11.9476ZM25.0001 14.8437C25.4306 14.8437 25.7813 15.1937 25.7813 15.625C25.7813 16.0562 25.4306 16.4062 25.0001 16.4062C24.5696 16.4062 24.2188 16.0562 24.2188 15.625C24.2188 15.1937 24.5696 14.8437 25.0001 14.8437Z" fill="black"/>
<path d="M30.4688 24.2188H19.5312C18.6695 24.2188 17.9688 24.9195 17.9688 25.7812V30.4688C17.9688 31.3305 18.6695 32.0312 19.5312 32.0312H30.4688C31.3305 32.0312 32.0312 31.3305 32.0312 30.4688V25.7812C32.0312 24.9195 31.3305 24.2188 30.4688 24.2188ZM30.4688 27.3438H28.9062V25.7812H30.4688V27.3438ZM24.2188 28.9062V30.4688H22.6562V28.9062H24.2188ZM22.6562 27.3438V25.7812H24.2188V27.3438H22.6562ZM25.7812 28.9062H27.3438V30.4688H25.7812V28.9062ZM25.7812 27.3438V25.7812H27.3438V27.3438H25.7812ZM21.0938 25.7812V27.3438H19.5312V25.7812H21.0938ZM19.5312 28.9062H21.0938V30.4688H19.5312V28.9062ZM28.9062 30.4688V28.9062H30.4695V30.4688H28.9062Z" fill="black"/>
<path d="M47.6562 25.7812C48.518 25.7812 49.2188 25.0805 49.2188 24.2188V22.1984C49.2188 21.7875 49.0523 21.3844 48.7609 21.0938L44.5312 16.8641C44.2359 16.5688 43.8437 16.4062 43.4266 16.4062H35.1562V12.7703C35.1562 12.4211 35.0375 12.0781 34.8219 11.8055L26.8781 1.69375C26.4219 1.11406 25.7375 0.78125 25 0.78125C24.2625 0.78125 23.5781 1.11406 23.1219 1.69375L15.1789 11.8039C14.9625 12.0781 14.8438 12.4203 14.8438 12.7703V16.4062H6.57344C6.15625 16.4062 5.76406 16.5688 5.46875 16.8641L1.23906 21.0938C0.947656 21.3844 0.78125 21.7875 0.78125 22.1984V24.2188C0.78125 25.0805 1.48203 25.7812 2.34375 25.7812H3.90625V35.1562H2.34375C1.48203 35.1562 0.78125 35.857 0.78125 36.7188V38.2812C0.78125 39.143 1.48203 39.8438 2.34375 39.8438V49.2188H47.6562V39.8438C48.518 39.8438 49.2188 39.143 49.2188 38.2812V36.7188C49.2188 35.857 48.518 35.1562 47.6562 35.1562H46.0938V25.7812H47.6562ZM35.1562 24.2188V22.6562H47.6562V24.2188H35.1562ZM39.4805 21.0938L37.3969 17.9688H39.4773L42.0812 21.0938H39.4805ZM46.5516 21.0938H44.1164L41.5125 17.9688H43.4273L46.5516 21.0938ZM35.5195 17.9688L37.6031 21.0938H35.1562V17.9688H35.5195ZM35.1562 28.9062H38.2812V32.0312H35.1562V28.9062ZM42.9688 39.8438V47.6562H41.4062V39.8438H42.9688ZM39.8438 47.6562H38.2812V39.8438H39.8438V47.6562ZM36.7188 47.6562H35.1562V39.8438H36.7188V47.6562ZM19.5312 38.2812V36.7188H30.4688L30.4695 38.2812H19.5312ZM24.2188 39.8438V47.6562H21.0938V39.8438H24.2188ZM25.7812 39.8438H28.9062V47.6562H25.7812V39.8438ZM30.4688 39.8438C31.3305 39.8438 32.0312 39.143 32.0312 38.2812V36.7188C32.0312 35.857 31.3305 35.1562 30.4688 35.1562H19.5312C18.6695 35.1562 17.9688 35.857 17.9688 36.7188V38.2812C17.9688 39.143 18.6695 39.8438 19.5312 39.8438V47.6562H16.4062V13.2812H18.3789C18.118 14.0156 17.9688 14.8023 17.9688 15.625C17.9688 19.5023 21.1234 22.6562 25 22.6562C28.8766 22.6562 32.0312 19.5023 32.0312 15.625C32.0312 14.8023 31.882 14.0156 31.6211 13.2812H33.5938V47.6562H30.4688V39.8438ZM8.59375 39.8438V47.6562H7.03125V39.8438H8.59375ZM10.1562 39.8438H11.7188V47.6562H10.1562V39.8438ZM13.2812 39.8438H14.8438V47.6562H13.2812V39.8438ZM14.8438 32.0312H11.7188V28.9062H14.8438V32.0312ZM25.7812 11.7188V10.2187C28.1711 10.5633 30.0617 12.4539 30.4062 14.8438H28.9062V16.4062H30.4062C30.0617 18.7961 28.1711 20.6867 25.7812 21.0313V19.5312H24.2188V21.0313C21.8289 20.6867 19.9383 18.7961 19.5937 16.4062H21.0938V14.8438H19.5937C19.9383 12.4539 21.8289 10.5633 24.2188 10.2187V11.7188H25.7812ZM24.35 2.65938C24.6656 2.25781 25.3336 2.25781 25.6492 2.65938L32.768 11.7188H30.843C29.5797 9.83594 27.4328 8.59375 25.0008 8.59375C22.5687 8.59375 20.4211 9.83594 19.1586 11.7188H17.2336L24.35 2.65938ZM14.8438 21.0938H12.3969L14.4805 17.9688H14.8438V21.0938ZM7.91797 21.0938L10.5219 17.9688H12.6023L10.5187 21.0938H7.91797ZM6.57344 17.9688H8.48828L5.88438 21.0938H3.44844L6.57344 17.9688ZM2.34375 22.6562H14.8438V24.2188H2.34375V22.6562ZM5.46875 28.9062H7.03125V32.0312H5.46875V28.9062ZM5.46875 33.5938H7.03125C7.89297 33.5938 8.59375 32.893 8.59375 32.0312V28.9062C8.59375 28.0445 7.89297 27.3438 7.03125 27.3438H5.46875V25.7812H14.8438V27.3438H11.7188C10.857 27.3438 10.1562 28.0445 10.1562 28.9062V32.0312C10.1562 32.893 10.857 33.5938 11.7188 33.5938H14.8438V35.1562H5.46875V33.5938ZM2.34375 36.7188H14.8438V38.2812H2.34375V36.7188ZM3.90625 39.8438H5.46875V47.6562H3.90625V39.8438ZM46.0938 47.6562H44.5312V39.8438H46.0938V47.6562ZM47.6562 38.2812H35.1562V36.7188H47.6562V38.2812ZM44.5312 32.0312H42.9688V28.9062H44.5312V32.0312ZM44.5312 27.3438H42.9688C42.107 27.3438 41.4062 28.0445 41.4062 28.9062V32.0312C41.4062 32.893 42.107 33.5938 42.9688 33.5938H44.5312V35.1562H35.1562V33.5938H38.2812C39.143 33.5938 39.8438 32.893 39.8438 32.0312V28.9062C39.8438 28.0445 39.143 27.3438 38.2812 27.3438H35.1562V25.7812H44.5312V27.3438Z" fill="black"/>
</svg>
